<mxfile host="app.diagrams.net" modified="2023-06-15T14:12:54.016Z" agent="Mozilla/5.0 (Windows NT 10.0; Win64; x64) AppleWebKit/537.36 (KHTML, like Gecko) Chrome/114.0.0.0 Safari/537.36" version="21.4.0" etag="yI-nbc_wNlu8sH4Gx8G-" type="github">
  <diagram name="第 1 页" id="0rlKu99oyIGkhVCIj3uw">
    <mxGraphModel>
      <root>
        <mxCell id="0" />
        <mxCell id="1" parent="0" />
      </root>
    </mxGraphModel>
  </diagram>
</mxfile>
